<?xml version="1.0" encoding="utf-8"?>
<svg width="297mm" height="210mm" version="1.1" style="shape-rendering:geometricPrecision; text-rendering:geometricPrecision; image-rendering:optimizeQuality; fill-rule:evenodd; clip-rule:evenodd" viewBox="4054.981 182.656 20969.017 20744.281" xmlns="http://www.w3.org/2000/svg">
  <defs>
  </defs>
  <g id="Camada_x0020_1">
    <path class="fil0 str0" d="M6412.15 12983.33c-883.51,-844.85 -2189.44,-2457.81 -2227.82,-4493.46 -38.37,-2035.65 1190.53,-4494.01 3111.05,-6068.86 1920.52,-1574.57 4532.11,-2265.92 7412.89,-2074.03 2880.51,192.16 6029.93,1267.83 8027.21,3418.62 1997,2150.78 2842.13,5377.23 1651.6,7873.69 -1190.8,2496.46 -4417.25,4263.2 -6759.92,5031.3 -2342.95,768.1 -3802.39,537.83 -4532.12,460.8 -729.72,-76.75 -729.72,0.27 -1459.44,691.62 -729.72,691.34 -2189.43,1997 -3034.29,2573.21 -845.13,576.21 -1075.39,422.43 -1190.53,230.27 -115.4,-191.89 -115.4,-422.16 38.38,-1536.2 153.51,-1113.77 460.81,-3111.05 384.05,-4148.06 -76.75,-1037.02 -537.83,-1113.77 -1421.06,-1958.9z"/>
  </g>
</svg>