<svg height="783.65" preserveAspectRatio="xMidYMid meet" viewBox="0 0 681.78 783.65" width="681.78" xmlns="http://www.w3.org/2000/svg" xmlns:xlink="http://www.w3.org/1999/xlink"><defs><path id="a" d="m201.81 315.56c-26.5-35.07-33.12-95.45-34.68-118.44-.39-4.48-5.45-6.82-9.35-4.67-81.81 45.77-157.78 154.47-157.78 259.27 0 180.57 125.25 331.93 340.89 331.93 202 0 340.89-155.84 340.89-331.74 0-230.05-164.21-382.38-310.5-451.34-3.9-1.94-8.18 1.37-7.79 5.46 19.09 124.08-7.02 258.68-159.15 310.69.01-.02.08-.15.19-.38-1.29 0-2.2-.26-2.72-.78z"/><linearGradient id="b" gradientUnits="userSpaceOnUse" x1="261.85" x2="469.03" y1="326.77" y2="528.83"><stop offset="0"/><stop offset=".501961" stop-color="#b8b8b8"/><stop offset="1"/></linearGradient></defs><use fill="url(#b)" xlink:href="#a"/><use fill="none" xlink:href="#a"/></svg>