<svg clip-rule="evenodd" fill-rule="evenodd" height="171.531mm" image-rendering="optimizeQuality" shape-rendering="geometricPrecision" text-rendering="geometricPrecision" viewBox="0 0 22325.74 17153.12" width="223.257mm" xmlns="http://www.w3.org/2000/svg"><path d="m4449.62 2010.55c630.75 0 1353.84 0 1738.42-7.68 384.63-7.69 430.74-23.06 453.8-138.41 23.11-115.4 23.11-330.82 84.66-530.83 636.25-1543.54 2685.88-1328.22 4071.06-1311.1 771.07 9.54 3134.35-55.93 3741.77 162.06 673.21 241.65 1183.98 704.18 1279.27 1431.36 17.93 136.98 21.2 385.45 76.91 502.32 46.17 76.91 138.52 76.91 738.47 69.23 932.63-12.05 2056.22-68.2 2966.45-30.42 1410.47 58.6 2588.9 1612.99 2660.25 2948.62 55.82 1045.26-.7 2296.46-8.72 3370.33-13.68 1853.65 17.12 3831.6-56.74 5669.44-70.92 1236.37-524.18 1973.42-1597.84 2620.74-822.03 495.67-1945.72 342.11-2897.11 337.48-3783.63-18.42-7610.48-24.8-11392.64 6.6-1899.66 15.7-4268.72 393.9-5570.4-1325.94l-98.39-129.95c-815.16-1227.32-578.96-2947.92-565.55-4379.33 14.28-1877.2-43.78-3823.91 43.66-5691.14 67.87-1450.32 740.92-2800.24 2113.62-3422.43 551.33-249.88 1575.92-150.95 2219.05-150.95zm6876.81 4661.48c1605.85 0 2907.63 1301.79 2907.63 2907.63 0 1605.85-1301.78 2907.63-2907.63 2907.63s-2907.63-1301.78-2907.63-2907.63c0-1605.84 1301.78-2907.63 2907.63-2907.63zm0-2030.71c2727.42 0 4938.34 2210.93 4938.34 4938.34 0 2727.42-2210.92 4938.34-4938.34 4938.34s-4938.34-2210.92-4938.34-4938.34c0-2727.41 2210.92-4938.34 4938.34-4938.34z"/></svg>