<svg clip-rule="evenodd" fill-rule="evenodd" height="115.181mm" image-rendering="optimizeQuality" shape-rendering="geometricPrecision" text-rendering="geometricPrecision" viewBox="0 0 11906.5 11518.12" width="119.065mm" xmlns="http://www.w3.org/2000/svg"><path d="m7570.82 1009.75c226.29-271.55 724.12-647.21 1092.89-832.74 368.83-185.58 608.72-181.03 844.06-160.64 235.4 20.32 466.31 56.46 832.86 291.8s868.82 669.81 1190.05 1104.28c321.24 434.47 461.56 868.87 303.13 1339.55-158.37 470.62-615.44 977.5-925.46 1239.99-309.97 262.43-472.96 280.6-1027.38-156.09-554.35-436.75-1500.14-1328.23-1995.69-1857.71-495.49-529.48-540.75-696.96-314.46-968.44zm-6711.07 7147.21c-190.27 568.45-540.94 1670.39-714.08 2288.17-173.09 617.71-168.53 751.21-133.5 848.5 35.1 97.28 100.68 158.43 179.86 200.3 79.25 41.81 171.98 64.47 756.88-89.41 584.95-153.87 1662.02-484.28 2253.69-672.08 591.73-187.81 698.13-233.06 752.44-308.86s56.52-182.14 41.81-264.71c-14.66-82.64-46.37-141.44-469.45-576.96-423.08-435.57-1237.59-1247.87-1667.56-1665.34-429.91-417.48-475.23-440.14-520.55-451.47-45.32-11.39-90.52-11.39-128.75-.61-38.24 10.77-69.52 32.39-100.06 60.65s-60.41 63.3-250.73 631.82zm2230.04-2625.24c752.38-747.82 2100.93-2046.67 2804.6-2702.81 703.74-656.2 762.6-669.81 848.56-667.53s199.13 20.38 665.25 441.24 1285.25 1244.48 1730.99 1692.5c445.8 448.02 518.21 520.43 531.75 624.55 13.61 104.06-31.65 239.84-99.56 348.45-67.86 108.62-158.37 190.08-914.14 893.82-755.76 703.67-2176.72 2029.68-2916.42 2709.53-739.69 679.78-798.06 713.52-868.2 688.65-70.13-24.94-152.09-108.44-584.53-555.22-432.37-446.79-1215.29-1256.8-1650.87-1705.92-435.58-449.19-523.82-537.49-489.89-680.03 33.99-142.55 190.08-339.4 942.46-1087.23z"/></svg>