<?xml version="1.0" encoding="utf-8"?>
<svg width="297mm" height="210mm" version="1.1" shape-rendering="geometricPrecision" text-rendering="geometricPrecision" image-rendering="optimizeQuality" fill-rule="evenodd" clip-rule="evenodd" viewBox="4128.044 1388.192 21882.289 17931.365" xmlns="http://www.w3.org/2000/svg">
  <defs>
    <linearGradient id="id0" gradientUnits="userSpaceOnUse" x1="8900.28" y1="17220.92" x2="22002.46" y2="4937.77">
      <stop offset="0" stop-opacity="1" stop-color="#FD297B"/>
      <stop offset="0.6" stop-opacity="1" stop-color="#FF5864"/>
      <stop offset="1" stop-opacity="1" stop-color="#FF655B"/>
    </linearGradient>
    <linearGradient id="id1" gradientUnits="userSpaceOnUse" x1="8909.04" y1="17226.49" x2="21976.39" y2="4895.78">
      <stop offset="0" stop-opacity="1" stop-color="#FD297B"/>
      <stop offset="0.6" stop-opacity="1" stop-color="#FF5864"/>
      <stop offset="1" stop-opacity="1" stop-color="#FF655B"/>
    </linearGradient>
  </defs>
  <g id="Camada_x0020_1">
    <g id="_2804932162160">
      <path fill="url(#id0)" d="M4740.96 11873.63c-499.52,-1206.29 -694.43,-2644.08 -255.76,-4191.53 438.64,-1547.46 1510.84,-3204.66 3289.79,-4386.62 1779.04,-1181.85 4264.68,-1888.61 6665.09,-1766.78 2400.42,121.93 4715.5,1072.28 6201.99,2181.09 1486.57,1108.88 2144.55,2376.06 2473.55,3326.48 328.98,950.45 328.98,1583.99 268.03,1900.8 -60.88,316.82 -182.72,316.82 -548.32,158.36 -365.53,-158.36 -974.71,-475.17 -2071.34,-402.12 -1096.64,73.14 -2680.7,536.23 -3801.68,1267.26 -1120.98,731.11 -1778.95,1730.25 -2144.54,2595.38 -365.53,865.13 -438.57,1596.16 -255.85,2339.45 182.79,743.29 621.44,1498.75 828.59,1900.79 207.15,402.12 182.72,450.92 -231.59,438.66 -414.2,-12.18 -1218.47,-85.22 -1657.1,-121.84 -438.67,-36.53 -511.72,-36.53 -1157.51,329 -645.79,365.59 -1864.26,1096.61 -2546.59,1462.13 -682.33,365.6 -828.6,365.6 -913.92,328.99 -85.23,-36.53 -109.66,-109.59 -97.5,-389.87 12.27,-280.2 60.97,-767.63 109.66,-1364.66 48.79,-596.99 97.58,-1303.76 -243.67,-1730.25 -341.17,-426.39 -1072.19,-572.66 -1839.83,-1133.15 -767.66,-560.49 -1571.89,-1535.28 -2071.51,-2741.57l0.01 0.01 0 -0.01z"/>
      <path fill="url(#id1)" d="M16085.02 13884.09c121.84,-804.17 560.5,-1803.31 1425.63,-2522.25 865.12,-718.85 2156.72,-1157.5 3436.07,-1181.94 1279.43,-24.35 2546.69,365.6 3411.72,1011.31 865.12,645.8 1328.23,1547.55 1486.58,2424.85 158.44,877.3 12.17,1730.17 -402.13,2351.62 -414.21,621.45 -1096.61,1011.32 -1449.96,1230.65 -353.33,219.33 -377.68,268.12 -402.03,560.49 -24.35,292.48 -48.79,828.6 -73.14,1108.8 -24.34,280.28 -48.79,304.74 -97.58,316.92 -48.7,12.17 -121.75,12.17 -426.39,-146.29 -304.64,-158.35 -840.69,-475.17 -1133.15,-645.79 -617.14,-319.58 -715.66,-114.06 -1370.35,-189.8 -1357.93,-157.07 -3575.19,-1067.18 -4138.79,-2405.32 -258.02,-612.64 -346.61,-1152.68 -278.3,-1814.35l11.83 -98.88 -0.01 -0.01 0 -0.01z"/>
    </g>
  </g>
</svg>