<?xml version="1.0" encoding="utf-8"?>
<svg width="297mm" height="210mm" version="1.1" shape-rendering="geometricPrecision" text-rendering="geometricPrecision" image-rendering="optimizeQuality" fill-rule="evenodd" clip-rule="evenodd" viewBox="10781.14 4009.314 6597.557 12492.432" focusable="false" aria-hidden="true" role="presentation" xmlns="http://www.w3.org/2000/svg">
  <g id="Camada_x0020_1"/>
  <g id="Camada_x0020_1_0" transform="matrix(1, 0, 0, 1, -464.493561, 366.705444)">
    <path fill="black" d="M17523.62 11129.23c392.92,-393.62 314.57,-786.53 -118.46,-1062.39l-786.53 -471.97c-393.62,-236.22 -708.18,-786.54 -589.73,-1298.14l983.11 -4131.82c117.76,-471.97 -79.05,-589.73 -471.96,-275.16l-4917.89 4721.78c-393.61,393.61 -314.56,786.53 117.3,1062.39l787.23 471.97c393.62,235.75 708.18,786.53 590.43,1337.55l-1022.99 4091.71c-117.76,511.37 117.76,629.36 471.97,275.16l4957.29 -4721.08 0.23 0z"/>
  </g>
</svg>