<?xml version="1.0" encoding="utf-8"?>
<svg width="297mm" height="210mm" version="1.1" shape-rendering="geometricPrecision" text-rendering="geometricPrecision" image-rendering="optimizeQuality" fill-rule="evenodd" clip-rule="evenodd" viewBox="11636.787 5133.876 6964.262 6918.511" focusable="false" aria-hidden="true" role="presentation" xmlns="http://www.w3.org/2000/svg">
  <g id="Camada_x0020_1">
    <path fill="black" d="M16238.26 8807.66l213.91 -217.92 1788.34 1790.35c400.31,370.36 400.31,925.26 0,1326.42 -308.18,400.74 -924.26,400.74 -1293.76,0l-1790.34 -1764.7 219.06 -209.32 -2033.05 1942.79c-369.65,401.02 -924.26,401.02 -1324.85,0 -400.31,-308.18 -400.31,-924.98 0,-1295.34l1971.59 -2004.54 -210.76 214.34 -1730.17 -1787.48c-430.97,-369.93 -430.97,-924.98 0,-1295.34 139.69,-202.73 370.22,-323.94 616.36,-323.94 246.15,0 476.67,121.21 616.08,324.08l2002.25 1973.88 -216.78 -213.9 1849.95 -1760.12c369.65,-431.82 924.26,-431.82 1293.76,0 400.74,308.61 400.74,924.98 0,1295.34l-1971.16 2004.54 -0.43 0.86z"/>
  </g>
</svg>