<?xml version="1.0" encoding="utf-8"?>
<svg width="297mm" height="210mm" version="1.1" shape-rendering="geometricPrecision" text-rendering="geometricPrecision" image-rendering="optimizeQuality" fill-rule="evenodd" clip-rule="evenodd" viewBox="10267.753 5867.287 10533.528 9412.108" focusable="false" aria-hidden="true" role="presentation" xmlns="http://www.w3.org/2000/svg">
  <g id="Camada_x0020_1">
    <g id="like.svg">
      <g>
        <path fill="black" d="M20740.88 9191.69c0,-1873.23 -1246.92,-3234.07 -2977.88,-3234.07 -926.78,0 -1424.99,336.87 -2223.08,1111.54 -802.22,-774.67 -1300.83,-1118.43 -2223.87,-1118.43 -1731.16,0 -2984.18,1364 -2984.18,3244.11 0,791.4 279.61,1535.77 798.09,2121.94l4177.38 3830.08c128.09,114.52 336.86,114.52 461.22,0l3772.82 -3425.72 229.04 -208.77 84.41 -94.84 87.57 -90.52c516.51,-584.99 801.63,-1339.2 801.63,-2119.58 0,-3.14 0,-6.69 0,-9.84l-3.15 -5.9zm0 0l0 0 0 0z"/>
      </g>
    </g>
  </g>
</svg>