<?xml version="1.0" encoding="utf-8"?>
<svg width="297mm" height="210mm" version="1.1" style="shape-rendering:geometricPrecision; text-rendering:geometricPrecision; image-rendering:optimizeQuality; fill-rule:evenodd; clip-rule:evenodd" viewBox="11361.253 5552.767 8146.497 9602.215" xmlns="http://www.w3.org/2000/svg">
  <defs>
    <style type="text/css">
   
    .fil0 {fill:black}
   
  </style>
  </defs>
  <g id="Camada_x0020_1">
    <path class="fil0" d="M15653.38 7014.86c3831.39,15.13 5296.87,5522.58 1705.29,7533.5 -1642.58,919.66 -3761.64,649.73 -5026.94,-782.38 -450.15,-509.5 -1139.96,-1665.67 -863.98,-2348.98 203.66,-504.21 1236.14,-642.15 1493.08,-77.21 116.06,255.23 127.15,519.6 291.82,834.88 443,848.19 1387.32,1346.45 2340.86,1255.92 1232.15,-116.99 2105.93,-1122.07 2153.91,-2333.77 28.66,-723.03 -240.89,-1344.61 -749.61,-1851.68 -165,-158.39 -323.87,-274.47 -515.72,-397.47 -255.2,-158.48 -486.8,-240.86 -790.38,-216.36 -32.74,3.28 -26.76,123.42 -27.66,148.74 -5.56,156.37 9.17,321.46 11.15,479.34 0.94,201.69 2.32,507.52 -123.96,673.3 -258.36,258.69 -595.55,-4.9 -837.25,-154.33 -506.05,-312.9 -1986.32,-1346 -2286.38,-1809.41l-19.43 -33.31 -26.18 -80.52c342.18,-745.19 2088.09,-2049.07 2897.83,-2263.86 139.45,9.11 214.59,30.73 283.29,164.25 135.72,263.83 61.93,813.47 63.05,1118.82 0.48,56.32 4.6,88.49 27.21,140.53z"/>
  </g>
</svg>