<?xml version="1.0" encoding="utf-8"?>
<svg width="297mm" height="210mm" version="1.1" shape-rendering="geometricPrecision" text-rendering="geometricPrecision" image-rendering="optimizeQuality" fill-rule="evenodd" clip-rule="evenodd" viewBox="4895.202 0 17681.183 21000" xmlns="http://www.w3.org/2000/svg">
  <defs>
    <linearGradient id="id0" gradientUnits="userSpaceOnUse" x1="9659.93" y1="19550.87" x2="20869.8" y2="5868.73">
      <stop offset="0" stop-opacity="1" stop-color="#FFDD00"/>
      <stop offset="0.7608" stop-opacity="1" stop-color="#FFC200"/>
      <stop offset="1" stop-opacity="1" stop-color="#FFA600"/>
    </linearGradient>
  </defs>
  <g id="Camada_x0020_1">
    <g id="_2768747229216">
      <g id="Camada_x0020_1_0">
        <path fill="url(#id0)" d="M14295.53 3243.21c8379.22,33.09 11584.22,12077.85 3729.45,16475.72 -3592.3,2011.29 -8226.68,1420.96 -10993.88,-1711.06 -984.48,-1114.27 -2493.09,-3642.81 -1889.52,-5137.21 445.4,-1102.7 2703.43,-1404.38 3265.36,-168.86 253.82,558.19 278.08,1136.36 638.21,1825.88 968.84,1854.99 3034.06,2944.68 5119.45,2746.69 2694.7,-255.86 4605.65,-2453.96 4710.58,-5103.94 62.68,-1581.25 -526.83,-2940.65 -1639.39,-4049.61 -360.85,-346.4 -708.3,-600.26 -1127.88,-869.27 -558.12,-346.6 -1064.62,-526.76 -1728.55,-473.18 -71.6,7.17 -58.52,269.92 -60.49,325.29 -12.16,341.98 20.05,703.03 24.38,1048.31 2.06,441.1 5.07,1109.94 -271.1,1472.5 -565.03,565.75 -1302.47,-10.72 -1831.06,-337.52 -1106.73,-684.31 -4344.07,-2943.7 -5000.3,-3957.17l-42.49 -72.85 -57.26 -176.1c748.35,-1629.73 4566.64,-4481.31 6337.54,-4951.05 304.98,19.92 469.31,67.21 619.55,359.21 296.82,577 135.44,1779.06 137.89,2446.85 1.05,123.17 10.06,193.53 59.51,307.34l0 0.03z"/>
      </g>
    </g>
  </g>
</svg>