<?xml version="1.0" encoding="utf-8"?>
<svg width="297mm" height="210mm" version="1.1" shape-rendering="geometricPrecision" text-rendering="geometricPrecision" image-rendering="optimizeQuality" fill-rule="evenodd" clip-rule="evenodd" viewBox="8849.825 4498.254 10704.657 10683.353" focusable="false" aria-hidden="true" role="presentation" xmlns="http://www.w3.org/2000/svg">
  <g id="Camada_x0020_1">
    <path fill="black" d="M16093.43 7946.78c-79.35,0 -206.27,-132.12 -248.64,-216.87l-1237.45 -2776.5c-248.64,-523.48 -618.82,-523.48 -825.09,0l-1242.44 2776.5c0,84.55 -121.73,211.47 -248.65,211.47l-2892.83 348.99c-534.07,0 -661,438.93 -243.25,872.66l2147.09 1993.78c79.35,84.55 121.72,264.44 79.35,348.99l-571.05 3035.74c-84.55,518.29 211.47,782.72 703.37,433.74l2480.28 -1475.5 412.35 -0.2 2480.28 1517.87c412.55,306.81 825.09,0 660.99,-518.28l-539.47 -3040.94c0,0 0,-211.47 121.73,-301.42l2067.73 -2041.35c412.55,-433.73 412.55,-867.27 -206.27,-867.27l-2898.03 -301.41z"/>
  </g>
  <g id="Camada_x0020_1_0"/>
</svg>