<?xml version="1.0" encoding="utf-8"?>
<svg width="297mm" height="210mm" version="1.1" shape-rendering="geometricPrecision" text-rendering="geometricPrecision" image-rendering="optimizeQuality" fill-rule="evenodd" clip-rule="evenodd" viewBox="3945.387 73.063 20749.817 20744.28" focusable="false" aria-hidden="true" role="presentation" xmlns="http://www.w3.org/2000/svg">
  <defs>
    <linearGradient id="id0" gradientUnits="userSpaceOnUse" x1="8152.87" y1="19110.6" x2="17669.39" y2="6613.79">
      <stop offset="0" stop-opacity="1" stop-color="#00D9E8"/>
      <stop offset="0.549" stop-opacity="1" stop-color="#00C6E8"/>
      <stop offset="1" stop-opacity="1" stop-color="#00B2E8"/>
    </linearGradient>
  </defs>
  <g id="Camada_x0020_1">
    <g id="_2768752961200">
      <g id="Camada_x0020_1_0">
        <path fill="url(#id0)" d="M18010.17 6752.65c-154.45,0 -401.49,-257.16 -483.96,-422.12l-2408.59 -5404.24c-483.96,-1018.9 -1204.48,-1018.9 -1605.97,0l-2418.3 5404.24c0,164.57 -236.94,411.6 -483.99,411.6l-5630.65 679.28c-1039.52,0 -1286.58,854.34 -473.46,1698.57l4179.13 3880.72c154.45,164.58 236.91,514.71 154.45,679.28l-1111.5 5908.82c-164.57,1008.81 411.61,1523.5 1369.05,844.24l4827.66 -2871.93 802.61 -0.39 4827.66 2954.41c802.99,597.18 1605.97,0 1286.56,-1008.79l-1050.03 -5918.94c0,0 0,-411.61 236.93,-586.69l4024.67 -3973.31c803,-844.22 803,-1688.07 -401.49,-1688.07l-5640.78 -586.67 0 -0.01z"/>
      </g>
      <g id="Camada_x0020_1_0_1"/>
    </g>
  </g>
</svg>